<?xml version="1.0" encoding="iso-8859-1"?>
<!-- Generator: Adobe Illustrator 19.0.0, SVG Export Plug-In . SVG Version: 6.00 Build 0)  -->
<svg xmlns="http://www.w3.org/2000/svg" xmlns:xlink="http://www.w3.org/1999/xlink" version="1.1" id="Capa_1" x="0px" y="0px" viewBox="0 0 512 512" style="enable-background:new 0 0 512 512;" xml:space="preserve" width="512" height="512">
<g>
	<rect y="128.333" width="15.5" height="15"/>
	<rect y="188.5" width="15.5" height="15"/>
	<polygon points="465.5,428.5 465.5,293.5 450.5,293.5 450.5,428.5 398,428.5 398,211 383,211 383,428.5 330.5,428.5 330.5,293.5    315.5,293.5 315.5,428.5 263,428.5 263,391 248,391 248,428.5 195.5,428.5 195.5,353.5 180.5,353.5 180.5,428.5 128,428.5    128,413.5 113,413.5 113,428.5 53,428.5 53,128.5 30.5,128.5 30.5,143.5 38,143.5 38,188.5 30.5,188.5 30.5,203.5 38,203.5    38,248.5 30.5,248.5 30.5,263.5 38,263.5 38,308.5 30.5,308.5 30.5,323.5 38,323.5 38,368.5 30.5,368.5 30.5,383.5 38,383.5    38,428.5 30.5,428.5 30.5,443.5 38,443.5 47.375,443.5 512,443.5 512,428.5  "/>
	<rect y="248.5" width="15.5" height="15"/>
	<rect y="308.5" width="15.5" height="15"/>
	<rect y="368.5" width="15.5" height="15"/>
	<rect y="428.5" width="15.5" height="15"/>
	<path d="M120.5,398.5c12.407,0,22.5-10.093,22.5-22.5s-10.093-22.5-22.5-22.5S98,363.593,98,376S108.093,398.5,120.5,398.5z    M120.5,368.5c4.136,0,7.5,3.364,7.5,7.5s-3.364,7.5-7.5,7.5s-7.5-3.364-7.5-7.5S116.364,368.5,120.5,368.5z"/>
	<path d="M188,338.5c12.407,0,22.5-10.093,22.5-22.5s-10.093-22.5-22.5-22.5s-22.5,10.093-22.5,22.5S175.593,338.5,188,338.5z    M188,308.5c4.136,0,7.5,3.364,7.5,7.5s-3.364,7.5-7.5,7.5s-7.5-3.364-7.5-7.5S183.864,308.5,188,308.5z"/>
	<path d="M255.5,376c12.407,0,22.5-10.093,22.5-22.5S267.907,331,255.5,331S233,341.093,233,353.5S243.093,376,255.5,376z    M255.5,346c4.136,0,7.5,3.364,7.5,7.5s-3.364,7.5-7.5,7.5s-7.5-3.364-7.5-7.5S251.364,346,255.5,346z"/>
	<path d="M324.875,278.5c12.407,0,22.5-10.093,22.5-22.5s-10.093-22.5-22.5-22.5s-22.5,10.093-22.5,22.5   S312.468,278.5,324.875,278.5z M324.875,248.5c4.136,0,7.5,3.364,7.5,7.5s-3.364,7.5-7.5,7.5s-7.5-3.364-7.5-7.5   S320.739,248.5,324.875,248.5z"/>
	<path d="M456.125,233.5c-12.407,0-22.5,10.093-22.5,22.5s10.093,22.5,22.5,22.5s22.5-10.093,22.5-22.5S468.532,233.5,456.125,233.5   z M456.125,263.5c-4.136,0-7.5-3.364-7.5-7.5s3.364-7.5,7.5-7.5s7.5,3.364,7.5,7.5S460.261,263.5,456.125,263.5z"/>
	<path d="M390.5,196c12.407,0,22.5-10.093,22.5-22.5S402.907,151,390.5,151S368,161.093,368,173.5S378.093,196,390.5,196z    M390.5,166c4.136,0,7.5,3.364,7.5,7.5s-3.364,7.5-7.5,7.5s-7.5-3.364-7.5-7.5S386.364,166,390.5,166z"/>
	<rect x="413" y="128.5" width="15" height="15"/>
	<rect x="413" y="98.5" width="37.5" height="15"/>
	<rect x="413" y="68.5" width="60" height="15"/>
</g>















</svg>
